<?xml version="1.0" standalone="no"?>
<!DOCTYPE svg PUBLIC "-//W3C//DTD SVG 20010904//EN"
 "http://www.w3.org/TR/2001/REC-SVG-20010904/DTD/svg10.dtd">
<svg version="1.0" xmlns="http://www.w3.org/2000/svg"
 width="112" height="29" viewBox="0 0 1202.000000 832.000000"
 preserveAspectRatio="xMidYMid meet">
<metadata>
Created by potrace 1.16, written by Peter Selinger 2001-2019
</metadata>
<g transform="translate(0.000000,832.000000) scale(0.100000,-0.100000)"
fill="#000000" stroke="none">
<path d="M5719 8317 c-2 -3 -83 -7 -179 -10 -146 -5 -376 -25 -625 -53 -283
-31 -688 -105 -995 -180 -1059 -260 -1950 -689 -2665 -1285 -136 -114 -422
-401 -528 -530 -432 -530 -669 -1081 -717 -1664 -13 -163 -13 -510 0 -685 76
-1009 607 -1921 1530 -2627 699 -534 1641 -928 2696 -1128 175 -33 529 -87
654 -99 191 -19 402 -37 510 -45 158 -11 1055 -11 1215 -1 614 41 1205 131
1685 257 978 255 1760 641 2400 1184 156 132 427 409 543 554 397 497 638
1024 737 1610 32 193 40 321 40 641 0 331 -8 446 -46 634 -306 1534 -1959
2811 -4218 3261 -345 68 -702 116 -1126 149 -130 11 -902 24 -911 17z m826
-248 c775 -49 1459 -178 2140 -404 1327 -440 2356 -1217 2820 -2130 526 -1035
317 -2160 -573 -3086 -686 -714 -1771 -1274 -3000 -1548 -439 -98 -813 -151
-1352 -192 -308 -24 -1060 -15 -1345 16 -22 2 -92 9 -155 15 -63 6 -196 23
-295 36 -1288 177 -2454 641 -3290 1310 -186 149 -471 429 -603 592 -340 420
-538 839 -623 1319 -27 153 -37 475 -19 635 133 1225 1174 2308 2825 2938 712
272 1617 460 2385 496 74 4 137 8 139 10 8 7 819 1 946 -7z"/>
<path d="M740 5605 c0 -3 28 -52 62 -108 250 -415 485 -670 643 -700 17 -3 82
-8 145 -12 63 -3 142 -7 175 -10 33 -3 105 -7 160 -10 55 -3 127 -8 160 -10
33 -3 98 -7 145 -10 263 -16 735 -46 800 -50 41 -2 116 -7 165 -10 50 -3 115
-8 145 -10 30 -3 105 -7 165 -11 61 -3 112 -8 115 -11 2 -2 -535 -1 -1195 3
l-1200 7 65 -74 c101 -116 288 -299 365 -357 39 -29 99 -67 135 -85 60 -30 72
-32 165 -32 111 0 465 13 535 20 110 11 541 37 545 33 3 -2 -201 -39 -453 -82
-251 -42 -468 -81 -481 -85 -23 -7 -21 -9 35 -60 156 -139 357 -274 459 -306
62 -19 22 -21 570 20 33 2 101 7 150 10 212 13 259 15 420 25 94 6 199 12 235
15 148 10 379 17 402 12 14 -4 50 -39 86 -85 319 -405 786 -660 1305 -712 65
-7 143 -10 174 -8 48 4 61 10 85 37 31 34 37 88 15 128 -7 12 -51 51 -99 87
-48 37 -95 78 -105 92 -21 32 -10 68 30 98 22 17 32 18 55 10 15 -6 129 -87
253 -181 258 -195 275 -202 357 -161 89 44 120 143 69 219 -12 19 -99 92 -192
162 -94 71 -176 139 -183 153 -25 48 11 105 67 106 25 1 77 -34 289 -194 141
-107 268 -200 281 -207 36 -20 114 -17 152 5 49 28 82 96 75 153 -4 25 -16 57
-29 73 -12 16 -119 102 -237 191 -204 154 -215 164 -218 198 -4 49 24 83 69
83 29 0 73 -29 274 -180 132 -100 250 -186 262 -192 36 -19 124 -15 161 8 35
21 71 87 72 129 0 14 -9 44 -20 67 -18 36 -95 98 -578 461 -306 231 -573 428
-592 439 -46 25 -181 26 -225 2 -16 -9 -113 -78 -215 -153 -206 -153 -256
-181 -366 -200 -136 -24 -271 2 -380 73 -128 83 -160 202 -83 313 10 15 141
119 291 231 150 113 279 212 287 222 19 22 0 66 -28 66 -18 0 -205 -64 -776
-265 -291 -102 -312 -101 -965 28 -474 94 -1012 199 -1795 352 -527 103 -812
159 -1049 206 -224 44 -206 41 -206 34z"/>
<path d="M10890 5539 c-379 -70 -1159 -214 -2150 -395 -316 -57 -733 -134
-927 -169 -471 -87 -530 -87 -768 4 -55 21 -255 98 -445 171 -190 72 -373 137
-407 143 -76 12 -164 0 -244 -34 -32 -14 -218 -146 -451 -321 -361 -270 -398
-301 -398 -326 0 -36 19 -53 95 -89 52 -24 72 -28 155 -28 126 0 156 15 395
194 224 167 261 184 390 184 142 0 162 -11 529 -287 177 -133 438 -330 581
-438 277 -208 304 -235 335 -335 27 -87 35 -90 230 -97 91 -4 199 -9 240 -11
196 -12 268 -16 435 -25 304 -17 367 -21 678 -46 193 -16 211 -16 260 -1 67
21 189 91 286 164 86 64 242 195 238 199 -1 2 -203 37 -447 79 -544 93 -558
96 -415 89 61 -3 135 -7 165 -9 225 -19 657 -40 820 -40 98 0 109 2 166 32 34
18 97 59 141 92 77 58 315 294 383 380 l34 44 -1199 -7 c-660 -4 -1197 -5
-1195 -3 3 3 55 8 115 11 61 4 135 8 165 11 30 2 98 7 150 10 52 3 129 8 170
10 41 3 183 12 315 20 132 8 267 17 300 20 33 2 110 7 170 10 61 3 128 7 150
10 22 2 99 7 170 10 72 3 141 8 155 10 14 2 88 7 165 11 201 9 245 28 382 157
101 96 184 200 308 387 143 216 179 280 157 279 -9 -1 -181 -32 -382 -70z"/>
</g>
</svg>
